<svg xmlns="http://www.w3.org/2000/svg" width="442" height="1600" viewBox="0 0 442 1600"><g transform="translate(0 1600) rotate(-90) translate(-0 -458)">
<defs>
<filter id="gc" x="0" y="0" width="100%" height="100%"><feTurbulence type="fractalNoise" baseFrequency=".85" numOctaves="2" seed="7" /><feColorMatrix values="0 0 0 0 1  0 0 0 0 1  0 0 0 0 1  9 0 0 0 -4.5" /></filter>
<filter id="gs" x="0" y="0" width="100%" height="100%"><feTurbulence type="fractalNoise" baseFrequency=".85" numOctaves="2" seed="3" /><feColorMatrix values="0 0 0 0 0  0 0 0 0 0  0 0 0 0 0  9 0 0 0 -4.5" /></filter>
<radialGradient id="gr" gradientUnits="userSpaceOnUse" cx="640" cy="760" r="780"><stop offset="0" stop-color="#ff8460" /><stop offset=".35" stop-color="#e2462a" /><stop offset=".8" stop-color="#8a2511" /><stop offset="1" stop-color="#5a150a" /></radialGradient>
<radialGradient id="gb" gradientUnits="userSpaceOnUse" cx="640" cy="760" r="780"><stop offset="0" stop-color="#fffdf5" /><stop offset=".35" stop-color="#e8e2cc" /><stop offset=".8" stop-color="#8d8870" /><stop offset="1" stop-color="#5f5b49" /></radialGradient>
<radialGradient id="lu" cx=".36" cy=".26" r=".5"><stop offset="0" stop-color="#fff" /><stop offset="1" stop-color="#000" /></radialGradient>
<radialGradient id="os" cx=".36" cy=".26" r=".8"><stop offset=".3" stop-color="#000" /><stop offset="1" stop-color="#fff" /></radialGradient>
<mask id="ml"><rect x="360" y="560" width="880" height="880" fill="url(#lu)" /></mask>
<mask id="ms"><rect x="360" y="560" width="880" height="880" fill="url(#os)" /></mask>
<clipPath id="t"><rect y="470" width="1600" height="430" /></clipPath>
<clipPath id="sx"><rect x="360" y="470" width="440" height="430" /></clipPath>
<clipPath id="dx"><rect x="800" y="470" width="440" height="430" /></clipPath>
<clipPath id="cc"><circle cx="800" cy="1000" r="440" /></clipPath>
</defs>
<rect y="470" width="800" height="430" fill="#0d0d0d" />
<rect x="800" y="470" width="800" height="430" fill="#5aa4bb" />
<g clip-path="url(#t)">
<circle cx="800" cy="1000" r="440" fill="url(#gr)" clip-path="url(#sx)" />
<circle cx="800" cy="1000" r="440" fill="url(#gb)" clip-path="url(#dx)" />
<g clip-path="url(#cc)">
<rect x="360" y="560" width="880" height="880" filter="url(#gc)" mask="url(#ml)" opacity=".35" />
<rect x="360" y="560" width="880" height="880" filter="url(#gs)" mask="url(#ms)" opacity=".3" />
</g>
</g>
</g></svg>
